<svg width="1322" height="34" viewBox="0 0 1322 34" fill="none" xmlns="http://www.w3.org/2000/svg">
<path d="M1 17H577.001" stroke="#ADC886" stroke-linecap="round"/>
<path d="M745 17L1321 16.9926" stroke="#ADC886" stroke-linecap="round"/>
<path d="M668.75 10.07V10.52C668.3 10.595 667.955 10.7375 667.715 10.9475C667.475 11.1575 667.31 11.48 667.22 11.915C667.145 12.35 667.108 12.965 667.108 13.76V26.0225C666.913 25.9925 666.703 25.9775 666.478 25.9775C666.253 25.9775 666.013 25.9925 665.758 26.0225L655.88 14.39V21.95C655.88 22.865 655.925 23.57 656.015 24.065C656.105 24.545 656.308 24.89 656.623 25.1C656.938 25.31 657.433 25.46 658.108 25.55V26C657.823 25.97 657.44 25.955 656.96 25.955C656.495 25.94 656.053 25.9325 655.633 25.9325C655.303 25.9325 654.958 25.94 654.598 25.955C654.253 25.955 653.96 25.97 653.72 26V25.55C654.2 25.46 654.553 25.3175 654.778 25.1225C655.018 24.9125 655.175 24.59 655.25 24.155C655.325 23.705 655.363 23.09 655.363 22.31V12.455C655.363 11.9 655.325 11.495 655.25 11.24C655.175 10.97 655.018 10.79 654.778 10.7C654.538 10.595 654.185 10.535 653.72 10.52V10.07C653.96 10.085 654.253 10.1 654.598 10.115C654.958 10.13 655.303 10.1375 655.633 10.1375C656.008 10.1375 656.368 10.13 656.713 10.115C657.058 10.1 657.373 10.085 657.658 10.07L666.59 20.285V14.12C666.59 13.205 666.545 12.5075 666.455 12.0275C666.38 11.5325 666.185 11.18 665.87 10.97C665.57 10.745 665.068 10.595 664.362 10.52V10.07C664.663 10.085 665.045 10.1 665.51 10.115C665.99 10.13 666.433 10.1375 666.838 10.1375C667.198 10.1375 667.55 10.13 667.895 10.115C668.24 10.1 668.525 10.085 668.75 10.07Z" fill="#71894E"/>
</svg>
